<?xml version="1.0" standalone="no"?>
<!DOCTYPE svg PUBLIC "-//W3C//DTD SVG 20010904//EN"
 "http://www.w3.org/TR/2001/REC-SVG-20010904/DTD/svg10.dtd">
<svg version="1.0" xmlns="http://www.w3.org/2000/svg"
 width="3200.000000pt" height="3200.000000pt" viewBox="0 0 3200.000000 3200.000000"
 preserveAspectRatio="xMidYMid meet">
<metadata>
Created by potrace 1.14, written by Peter Selinger 2001-2017
</metadata>
<g transform="translate(0.000000,3200.000000) scale(0.100000,-0.100000)"
fill="#000000" stroke="none">
<path d="M15376 28185 c39 -79 99 -220 133 -312 75 -202 74 -199 101 -293 12
-41 25 -86 30 -100 8 -24 26 -90 56 -200 8 -30 19 -71 24 -90 25 -91 54 -204
76 -295 13 -55 28 -116 34 -135 9 -35 28 -125 49 -230 44 -219 61 -748 30
-890 -28 -125 -82 -252 -110 -258 -10 -2 -19 14 -28 45 -83 298 -171 479 -330
681 -73 93 -74 93 -86 -14 -14 -116 -65 -296 -118 -414 -22 -51 -112 -237
-233 -487 -46 -94 -84 -175 -84 -180 0 -4 -7 -21 -15 -36 -33 -64 -105 -309
-105 -358 0 -60 3 -59 -184 -59 l-171 0 -24 63 c-21 56 -47 118 -71 172 -5 11
-19 43 -31 70 -35 80 -72 160 -144 310 -224 467 -314 717 -369 1035 -8 47 -21
119 -28 160 -18 104 -18 696 0 800 7 41 20 116 28 165 8 50 19 108 25 130 5
22 14 60 19 85 23 113 38 177 45 195 8 19 7 19 -11 4 -18 -16 -97 -78 -179
-143 -73 -58 -310 -258 -354 -300 -121 -115 -339 -396 -459 -591 -75 -124
-222 -426 -222 -457 0 -8 -4 -18 -9 -23 -7 -9 -43 -119 -82 -255 -45 -160 -64
-326 -64 -585 0 -236 6 -304 44 -480 14 -63 90 -287 102 -300 5 -5 9 -19 9
-32 l0 -23 -180 0 c-137 0 -180 3 -180 13 0 40 -125 250 -253 426 -205 281
-250 361 -287 509 -33 128 -25 260 25 462 59 235 85 377 85 466 0 101 -40 310
-71 366 -5 10 -9 23 -9 29 0 17 -82 177 -124 244 -108 169 -289 359 -491 514
-108 84 -427 302 -433 296 -2 -1 10 -27 26 -56 72 -135 99 -332 71 -522 -21
-144 -64 -235 -215 -458 -65 -96 -135 -199 -156 -230 -21 -31 -41 -72 -44 -90
-10 -61 -12 -64 -34 -44 -11 10 -20 24 -20 32 0 22 -58 122 -118 202 -30 41
-138 158 -241 260 -193 194 -243 252 -309 361 -76 127 -120 279 -110 383 l4
38 -19 -23 c-52 -66 -171 -283 -240 -438 -43 -99 -105 -290 -132 -410 -9 -41
-21 -93 -26 -115 -46 -199 -45 -660 2 -880 35 -161 81 -331 109 -400 4 -11 16
-40 25 -65 106 -272 276 -551 452 -743 24 -26 41 -52 37 -58 -10 -17 -93 -4
-182 27 -83 30 -180 85 -251 142 l-44 36 5 -137 5 -137 -246 0 -246 0 -31 98
c-37 114 -65 174 -155 339 -131 238 -186 374 -209 518 -6 39 -17 178 -25 310
-20 325 -32 407 -87 570 -47 140 -156 346 -238 449 -157 197 -336 349 -534
451 -115 60 -285 121 -390 141 -81 15 -164 34 -251 58 -32 9 -77 21 -99 26
l-40 9 34 -26 c115 -85 283 -287 345 -412 63 -127 79 -172 100 -279 18 -90 18
-97 2 -160 -20 -79 -57 -136 -113 -175 -35 -24 -50 -28 -107 -28 -122 0 -201
63 -318 254 -81 132 -143 210 -232 293 -223 206 -524 324 -830 324 -59 0 -107
-4 -107 -9 0 -4 25 -30 55 -56 82 -71 179 -197 229 -299 66 -133 79 -183 74
-269 -5 -82 -22 -115 -72 -142 -77 -41 -162 17 -247 169 -127 226 -289 385
-501 492 -37 19 -68 31 -68 27 0 -5 9 -22 20 -40 30 -50 68 -171 79 -256 25
-178 5 -367 -64 -622 -9 -33 -20 -73 -25 -90 -44 -144 -69 -231 -91 -320 -11
-44 -25 -100 -32 -125 -17 -63 -16 -429 1 -495 7 -27 27 -94 44 -147 l32 -97
-161 -168 c-89 -92 -234 -240 -322 -328 l-160 -159 -23 20 c-13 11 -46 40 -73
64 -28 25 -84 74 -125 110 -383 334 -529 508 -635 760 -43 101 -65 203 -75
350 -10 133 -13 155 -43 295 -35 163 -48 219 -51 223 -2 2 -12 -21 -21 -50
-47 -143 -103 -229 -333 -508 -237 -287 -310 -452 -347 -783 -15 -126 -15
-153 0 -295 8 -87 20 -179 27 -207 25 -115 81 -307 108 -370 4 -11 30 -72 56
-135 71 -170 137 -300 318 -622 14 -26 26 -49 26 -52 0 -16 -29 -2 -65 30
-203 183 -301 234 -454 234 -107 0 -170 -21 -226 -76 -82 -79 -105 -164 -105
-386 0 -88 4 -188 10 -222 5 -33 14 -97 20 -141 10 -81 25 -171 35 -212 3 -13
-2 -28 -12 -39 -10 -10 -22 -26 -28 -37 -5 -11 -14 -22 -20 -24 -9 -2 -145
196 -145 211 0 3 -17 34 -38 68 -65 106 -210 384 -280 538 -57 126 -72 159
-72 164 0 3 -11 29 -23 58 -13 29 -30 69 -37 88 -7 19 -19 49 -26 65 -7 17
-22 58 -35 93 -12 34 -24 62 -28 62 -3 0 -13 -15 -20 -32 -8 -18 -34 -76 -58
-128 -62 -134 -59 -127 -94 -215 -17 -44 -37 -93 -44 -110 -7 -16 -25 -66 -40
-110 -15 -44 -30 -89 -35 -100 -4 -11 -22 -67 -40 -125 -18 -58 -36 -116 -41
-130 -5 -14 -13 -43 -18 -65 -5 -22 -24 -96 -41 -165 -17 -69 -36 -147 -42
-175 -26 -124 -39 -195 -48 -255 -5 -36 -14 -90 -19 -120 -10 -54 -29 -212
-52 -440 -15 -151 -15 -721 1 -880 80 -828 201 -1227 443 -1462 124 -122 292
-203 617 -298 223 -65 414 -145 483 -202 l29 -24 -84 -54 c-108 -71 -254 -218
-350 -350 -87 -121 -255 -395 -332 -544 -121 -231 -160 -414 -121 -570 36
-140 117 -259 245 -359 125 -96 345 -194 545 -242 39 -9 86 -20 105 -25 142
-36 523 -45 715 -18 140 21 195 33 325 70 356 102 333 98 568 98 207 0 216 -1
280 -26 76 -30 216 -104 322 -169 47 -29 133 -68 200 -91 75 -26 272 -26 345
-1 96 34 195 82 355 175 52 30 126 70 165 88 l69 34 277 0 c252 0 283 -2 345
-21 118 -36 209 -86 355 -197 257 -194 312 -232 393 -271 113 -54 205 -75 308
-69 148 8 190 38 425 295 60 66 98 98 140 119 54 27 66 29 173 28 89 0 132 -6
190 -23 41 -12 98 -29 125 -37 28 -8 73 -22 100 -30 28 -8 64 -19 80 -24 17
-5 54 -16 83 -24 78 -24 139 -42 222 -66 41 -12 84 -26 95 -30 11 -5 38 -13
60 -18 22 -6 65 -17 95 -26 76 -21 212 -52 291 -65 272 -45 617 74 759 263
l42 56 1538 0 1538 0 118 -79 c316 -209 617 -320 1009 -371 331 -43 657 -13
975 90 340 110 356 113 521 108 133 -3 135 -4 220 -44 47 -23 111 -57 142 -77
142 -91 248 -127 374 -127 133 0 253 35 533 157 203 89 392 143 497 143 49 0
149 -22 214 -47 75 -29 171 -90 291 -185 212 -166 254 -196 328 -237 114 -61
162 -74 270 -75 120 0 182 21 438 147 335 166 426 167 677 13 44 -27 101 -62
127 -77 84 -49 283 -109 364 -109 24 0 44 -4 44 -10 0 -6 30 -10 69 -10 39 0
73 5 76 10 3 6 25 10 49 10 44 0 143 34 199 69 45 28 99 86 140 151 106 168
236 272 417 333 149 51 347 51 500 0 121 -39 175 -79 365 -263 195 -189 238
-215 365 -215 118 0 179 36 355 205 213 206 277 244 415 244 76 1 90 -2 133
-27 53 -31 96 -85 152 -191 81 -154 128 -205 214 -234 63 -22 172 -11 266 28
17 7 39 16 50 21 11 4 49 21 85 37 36 16 85 36 110 44 25 9 63 22 85 29 31 11
117 14 380 14 l340 0 87 29 c130 42 198 111 198 202 0 40 22 96 51 128 74 85
200 103 324 47 63 -29 89 -51 255 -220 190 -193 231 -223 335 -250 79 -21 196
-9 305 30 100 36 283 154 435 281 88 73 239 172 326 212 114 53 188 69 295 64
77 -4 101 -10 160 -39 72 -35 111 -71 364 -336 139 -146 192 -177 305 -177
144 -1 213 51 410 305 124 160 201 235 279 272 166 80 279 51 588 -146 75 -48
167 -102 204 -119 127 -59 262 -64 350 -13 86 51 169 171 181 266 3 22 10 42
14 45 13 7 11 134 -1 134 -5 0 -10 10 -10 22 0 61 -72 192 -146 263 -82 80
-216 159 -339 200 -22 8 -94 28 -160 45 -127 33 -230 78 -264 114 -11 12 -32
43 -46 69 -43 82 -35 198 30 407 38 123 49 211 35 288 -18 101 -73 207 -140
273 -95 93 -152 109 -387 109 l-143 0 0 2040 0 2040 254 0 c246 0 254 1 286
23 21 14 39 39 52 72 10 28 22 59 27 70 21 50 34 83 48 125 8 25 21 59 27 75
18 43 71 182 92 240 9 28 21 54 26 59 4 6 8 17 8 25 0 9 6 27 13 41 8 14 16
34 19 45 4 11 16 45 27 75 40 105 20 151 -85 194 -38 16 -82 35 -99 42 -16 7
-64 27 -105 44 -41 17 -84 35 -95 40 -17 8 -39 17 -140 60 -11 4 -38 15 -60
25 -22 9 -49 20 -60 25 -11 5 -49 21 -85 36 -36 14 -78 32 -95 39 -140 62
-1295 545 -1303 545 -6 0 -16 19 -22 43 -116 439 -410 845 -845 1167 -206 152
-458 300 -680 397 -27 12 -79 35 -116 51 -115 52 -115 52 -57 -30 59 -81 116
-185 147 -268 12 -30 26 -64 30 -75 21 -47 46 -146 80 -313 13 -63 15 -338 2
-346 -6 -4 -345 133 -516 209 -16 7 -59 25 -95 39 -36 15 -74 31 -85 36 -11 5
-54 23 -95 40 -41 17 -84 35 -95 40 -79 35 -115 50 -119 50 -3 0 -31 12 -63
26 -32 14 -74 32 -93 40 -19 9 -44 19 -55 24 -11 5 -328 138 -705 296 -377
158 -688 291 -691 296 -3 5 -11 57 -18 116 -37 326 -259 661 -533 806 -37 20
-178 67 -288 96 -161 43 -197 54 -274 89 l-48 22 28 -48 c88 -150 124 -279
124 -448 0 -184 -55 -352 -162 -495 -35 -46 -132 -142 -183 -181 -151 -113
-333 -154 -447 -100 -100 48 -149 132 -189 321 -91 438 -435 796 -879 917 -61
17 -275 41 -302 35 -14 -3 -11 -12 21 -51 105 -125 194 -323 242 -536 22 -95
19 -402 -4 -490 -35 -131 -81 -204 -152 -236 -73 -34 -153 -18 -193 38 -31 43
-36 112 -18 255 9 69 16 155 16 190 0 73 -17 219 -30 263 -55 183 -101 286
-177 392 -53 75 -169 200 -177 192 -3 -3 -15 -41 -26 -85 -11 -43 -24 -88 -29
-99 -5 -11 -21 -54 -36 -95 -50 -135 -145 -337 -225 -476 -28 -48 -50 -88 -50
-90 0 -2 -44 -77 -98 -166 -274 -456 -375 -640 -451 -823 -18 -44 -37 -89 -42
-100 -18 -45 -69 -214 -83 -280 -32 -153 -37 -184 -44 -299 l-7 -120 -45 -16
c-55 -20 -75 -28 -120 -45 -207 -79 -183 -75 -410 -75 l-208 0 -5 123 c-8 186
-20 265 -79 497 -136 534 -437 1020 -823 1329 -73 58 -220 161 -231 161 -2 0
-21 10 -42 23 -59 37 -123 57 -180 57 -29 0 -52 -2 -52 -5 0 -3 11 -40 24 -83
13 -42 30 -97 38 -122 20 -67 17 -253 -5 -315 -45 -124 -165 -235 -254 -235
-38 0 -40 8 -19 72 18 56 42 195 57 335 12 120 4 256 -27 438 -75 432 -305
824 -649 1102 -201 163 -491 301 -750 356 -146 32 -178 37 -223 37 l-47 0 71
-145z m568 -500 c95 -31 132 -50 221 -113 145 -102 322 -305 407 -467 179
-342 198 -755 68 -1460 -86 -467 -103 -618 -104 -895 -1 -261 14 -401 73 -691
45 -217 148 -493 281 -754 116 -228 135 -282 134 -390 0 -102 -19 -156 -75
-219 -67 -77 -143 -91 -359 -65 -99 12 -164 6 -370 -36 -138 -28 -234 -36
-300 -26 -254 41 -384 256 -415 691 -14 198 -51 332 -166 611 -172 419 -215
616 -173 788 21 83 43 126 89 173 44 44 92 62 154 56 71 -7 119 -35 201 -118
109 -109 208 -262 275 -425 39 -96 105 -121 169 -65 19 17 39 45 45 63 13 44
29 155 36 257 3 47 10 126 15 175 5 50 16 178 25 285 8 107 20 247 25 310 50
556 59 1030 25 1285 -52 382 -137 602 -325 845 -114 148 -144 193 -133 204 14
14 106 4 177 -19z m-4858 -762 c85 -95 174 -271 210 -413 20 -81 22 -140 13
-640 -4 -241 -3 -260 18 -337 41 -149 86 -229 266 -478 231 -318 363 -559 441
-801 57 -180 66 -218 76 -355 19 -259 -14 -429 -174 -894 -97 -284 -116 -363
-156 -661 -20 -155 -87 -271 -182 -318 -88 -44 -169 -31 -248 40 -58 53 -103
133 -149 269 -71 208 -120 281 -218 325 -43 20 -60 21 -173 17 -84 -3 -149
-12 -200 -26 -109 -31 -290 -39 -363 -16 -132 41 -198 155 -162 278 30 103
117 193 225 233 63 23 249 23 363 0 48 -10 91 -16 94 -12 4 3 1 33 -5 66 -33
178 -151 308 -464 514 -326 213 -444 348 -474 544 -6 41 -6 42 21 42 15 0 44
-4 64 -10 20 -5 95 -23 166 -40 72 -17 141 -35 155 -40 14 -5 59 -19 100 -31
41 -12 117 -40 169 -61 308 -128 506 -271 656 -472 82 -110 116 -136 183 -136
85 0 120 76 109 237 -11 160 -94 348 -298 679 -130 212 -212 371 -252 495 -82
247 -97 560 -42 827 14 68 87 326 119 423 16 48 47 166 65 244 31 141 37 317
15 488 -4 26 -4 47 0 47 4 0 18 -12 32 -27z m12382 -157 c82 -122 172 -289
193 -356 45 -144 51 -174 56 -288 7 -144 -9 -226 -64 -337 -122 -245 -351
-435 -788 -655 -438 -220 -796 -346 -1480 -520 -317 -81 -309 -79 -411 -120
-212 -85 -335 -181 -455 -358 -134 -197 -185 -236 -304 -236 -83 0 -134 22
-200 89 -89 89 -127 203 -171 525 -20 144 -23 499 -5 625 41 297 97 485 206
700 105 209 192 316 329 405 74 49 126 73 126 57 0 -1 -24 -52 -54 -112 -118
-243 -166 -446 -166 -715 0 -175 13 -273 50 -370 31 -81 60 -171 60 -186 0
-27 15 -13 48 44 72 126 202 254 348 342 99 61 142 79 319 139 171 58 222 82
301 137 132 93 205 224 234 424 22 154 -22 354 -121 552 -27 53 -45 99 -41
102 12 7 103 -35 175 -82 155 -101 271 -252 335 -434 34 -100 35 -107 36 -253
0 -128 -4 -162 -23 -230 -33 -112 -38 -181 -15 -222 20 -38 47 -48 106 -40 49
7 86 39 144 128 93 143 199 212 459 302 302 104 367 139 482 261 144 150 223
352 223 565 0 53 -7 121 -15 151 -16 61 -19 90 -7 90 4 0 44 -56 90 -124z
m-13708 -25 c0 -91 25 -233 51 -284 12 -25 89 -109 183 -202 142 -140 167
-170 199 -235 63 -130 81 -213 81 -385 0 -159 -15 -247 -68 -420 -55 -179 -70
-215 -90 -215 -31 0 -180 105 -237 167 -59 65 -146 195 -177 263 -82 186 -105
305 -105 540 1 102 5 214 11 250 28 165 35 202 62 310 50 200 74 280 82 280 4
0 8 -31 8 -69z m-2323 3 c21 -14 82 -50 135 -80 301 -169 419 -408 468 -949
25 -271 51 -403 109 -543 46 -115 88 -175 208 -303 146 -156 177 -215 172
-328 -4 -67 -8 -83 -32 -115 -36 -46 -88 -80 -151 -96 -132 -35 -344 68 -542
265 -195 193 -254 383 -205 660 11 66 30 170 41 230 29 157 29 436 1 595 -45
247 -111 428 -238 648 -29 48 -20 53 34 16z m-1315 -178 c124 -31 197 -70 278
-149 160 -155 257 -302 316 -483 129 -395 22 -798 -272 -1019 -179 -135 -384
-184 -581 -139 -161 36 -333 157 -412 289 -79 131 -110 320 -92 560 24 309 8
469 -60 612 -44 91 -47 107 -21 99 9 -2 33 -7 52 -11 57 -11 191 -80 255 -132
119 -97 185 -200 246 -387 56 -171 116 -233 214 -222 197 22 284 333 179 644
-32 97 -110 222 -193 310 -28 30 -33 52 -13 52 4 0 51 -11 104 -24z m7252
-144 c2 -4 -3 -32 -11 -62 -46 -167 -67 -446 -43 -585 55 -318 140 -511 466
-1056 258 -432 346 -607 414 -824 51 -164 58 -197 71 -333 28 -294 -40 -560
-197 -768 -94 -125 -205 -205 -346 -251 -67 -22 -92 -25 -166 -21 -111 6 -175
33 -237 99 -81 87 -114 211 -94 356 14 103 29 147 114 343 128 292 140 347
140 625 0 225 -4 257 -58 430 -44 144 -109 265 -253 475 -137 201 -192 292
-231 385 -53 125 -58 152 -57 310 0 134 3 159 27 237 32 106 65 176 134 291
93 155 187 270 267 329 41 29 52 33 60 20z m4039 -371 c23 -16 96 -64 162
-107 216 -139 329 -271 425 -496 81 -190 108 -421 76 -648 -9 -63 -21 -151
-27 -195 -14 -101 -7 -319 15 -455 14 -85 15 -117 6 -168 -26 -152 -142 -252
-319 -274 -152 -19 -306 28 -433 134 -191 159 -263 392 -209 673 30 154 63
246 208 570 118 263 155 398 156 575 1 147 -16 225 -75 339 -21 40 -38 75 -38
77 0 9 14 2 53 -25z m9552 -436 c261 -85 596 -387 739 -665 128 -249 192 -597
155 -843 -19 -126 -128 -510 -165 -582 -8 -16 -34 -84 -57 -150 l-41 -120 0
-165 c0 -182 8 -219 87 -390 150 -325 178 -447 141 -606 -41 -180 -147 -292
-303 -325 -65 -14 -149 -5 -207 20 -60 27 -110 82 -179 196 -108 181 -189 237
-469 330 -77 25 -172 62 -212 81 -85 42 -174 118 -209 178 -51 87 -56 123 -54
413 2 274 -3 331 -41 478 -24 92 -32 116 -72 203 -15 35 -28 65 -28 67 0 3
-20 38 -45 78 -51 85 -55 101 -22 92 150 -44 341 -193 441 -344 120 -182 154
-297 163 -553 5 -164 8 -181 32 -229 37 -74 91 -102 182 -96 165 11 320 149
395 354 26 70 29 90 29 203 0 133 -7 171 -66 350 -56 170 -69 242 -69 368 1
130 11 186 85 467 46 175 47 184 49 335 0 99 -4 175 -13 210 -61 253 -168 445
-329 590 -40 36 -72 68 -72 73 0 15 81 6 155 -18z m-23633 -649 c-5 -140 17
-236 83 -363 84 -161 193 -283 445 -497 399 -338 511 -473 590 -706 36 -108
41 -161 50 -530 9 -393 16 -446 76 -578 18 -41 53 -102 78 -135 59 -83 207
-225 336 -322 319 -240 456 -368 536 -505 76 -128 105 -262 84 -380 -14 -78
-39 -129 -90 -184 -59 -64 -120 -90 -210 -91 -65 0 -85 5 -141 32 -35 18 -89
56 -119 86 -54 52 -76 83 -215 296 -128 196 -232 272 -380 279 -85 4 -94 2
-305 -74 -103 -36 -108 -37 -250 -38 -163 0 -211 10 -338 72 -215 106 -369
322 -401 565 -8 65 1 73 40 31 49 -52 135 -82 339 -118 52 -10 119 -21 149
-27 78 -13 247 -11 314 5 81 20 143 59 167 106 40 78 16 198 -50 254 -68 56
-137 78 -319 96 -47 5 -109 16 -138 25 -115 34 -227 143 -259 251 -8 30 -14
59 -12 64 2 5 23 -3 46 -19 64 -42 148 -57 235 -43 94 17 245 67 293 98 83 54
121 154 102 271 -32 210 -132 347 -453 628 -77 67 -165 149 -196 181 -308 326
-367 852 -146 1299 31 63 45 85 56 85 3 0 5 -51 3 -114z m21620 -210 c29 -13
132 -59 228 -101 96 -42 203 -90 238 -106 35 -16 65 -29 67 -29 2 0 34 -14 72
-31 37 -17 93 -42 123 -55 124 -55 118 -60 -65 -56 -85 2 -155 1 -155 -2 0 -3
22 -38 49 -78 41 -62 141 -234 141 -244 0 -1 13 -31 29 -66 60 -130 113 -309
145 -488 18 -97 37 -327 29 -347 -4 -11 -250 -13 -1442 -13 l-1438 0 -39 -34
-39 -34 0 -897 0 -897 33 -29 32 -29 2236 0 c2055 0 2237 1 2260 16 41 27 48
53 54 189 l5 130 83 7 c149 12 301 108 387 243 18 28 36 61 40 75 4 14 11 30
16 36 5 5 15 52 23 104 14 83 14 106 1 209 -9 64 -18 123 -21 131 -4 8 -12 42
-19 75 -7 33 -22 98 -34 145 -11 47 -26 110 -33 140 -17 73 -17 289 1 365 29
130 87 295 103 295 5 0 34 -11 64 -25 30 -14 82 -36 115 -50 33 -14 89 -39
124 -55 35 -16 93 -41 127 -56 35 -14 96 -42 136 -60 41 -19 75 -34 77 -34 3
0 28 -11 57 -24 113 -52 190 -86 193 -86 5 0 130 -56 183 -82 l42 -21 0 -1824
0 -1823 -4347 2 -4348 3 0 1964 0 1964 160 59 c88 33 207 77 265 98 58 21 174
63 258 94 83 31 221 81 305 112 83 31 202 74 262 96 61 22 157 57 215 78 58
21 175 64 260 95 85 31 220 81 300 110 80 29 204 74 275 100 72 26 139 51 150
55 11 5 70 26 130 48 61 22 178 65 260 95 83 30 209 76 280 102 72 26 139 51
150 55 11 5 61 23 110 40 50 18 98 36 107 41 10 5 23 9 29 9 6 0 25 6 42 14
18 8 73 29 122 46 50 18 99 36 110 40 11 4 79 29 150 55 72 26 139 51 150 55
11 5 61 23 110 40 50 18 99 36 110 40 83 35 93 35 157 6z m1372 -605 c48 -23
89 -41 91 -41 2 0 33 -14 69 -30 39 -18 66 -37 66 -46 0 -9 11 -35 25 -59 25
-41 46 -63 208 -215 143 -135 162 -284 50 -394 -109 -106 -232 -55 -267 110
-9 41 -23 108 -32 149 -17 79 -62 207 -90 252 -66 107 -114 170 -184 237 -44
43 -80 81 -80 83 0 12 61 -8 144 -46z m-20155 -165 c152 -101 578 -383 946
-628 369 -245 987 -655 1375 -913 388 -257 824 -547 970 -643 146 -97 282
-189 303 -205 l37 -29 0 -1312 c0 -942 -3 -1315 -11 -1323 -7 -7 -21 -8 -42
-2 -49 14 -143 11 -205 -7 -177 -51 -306 -159 -537 -449 -64 -80 -134 -155
-194 -208 -202 -177 -454 -218 -622 -101 -43 29 -89 87 -173 216 -82 127 -145
168 -253 168 -136 0 -260 -68 -543 -299 -58 -46 -206 -187 -330 -311 -291
-293 -343 -329 -486 -337 -100 -6 -149 13 -216 85 -54 57 -86 117 -140 260
-50 135 -81 194 -125 243 -44 49 -76 66 -133 73 -23 2 -46 8 -50 13 -4 4 -32
42 -62 83 -131 179 -295 323 -461 405 -127 62 -198 79 -332 79 -178 -1 -329
-54 -441 -156 -93 -86 -135 -165 -168 -318 -36 -167 -50 -218 -76 -275 -76
-172 -225 -236 -374 -160 -61 31 -157 125 -191 188 l-19 35 35 74 c33 72 34
76 34 208 0 123 -2 142 -29 215 -49 138 -110 241 -278 466 l-108 146 0 842 c0
929 -5 868 63 840 21 -9 69 -14 137 -13 109 1 113 2 365 80 110 34 130 37 245
37 118 1 129 -1 197 -30 128 -54 193 -104 460 -348 60 -55 126 -115 146 -133
l37 -32 0 -301 0 -301 31 -29 31 -29 1087 0 c1059 0 1087 1 1118 20 22 13 35
31 43 59 7 27 9 408 8 1225 l-3 1186 -33 32 -32 33 -1097 2 -1097 3 -14 32
c-22 52 -52 149 -52 169 0 10 -4 28 -10 41 -15 36 -40 324 -40 460 l0 124 58
54 c185 174 400 376 418 394 12 12 84 80 160 152 77 71 190 178 253 238 76 71
119 105 130 101 8 -3 139 -88 290 -189z m-4295 -1757 c-7 -56 12 -234 32 -309
74 -266 191 -433 440 -626 68 -52 149 -123 181 -157 137 -147 176 -322 139
-625 -38 -311 -39 -321 -21 -463 24 -197 57 -314 136 -474 95 -195 169 -285
360 -438 120 -96 236 -218 268 -283 14 -27 27 -72 29 -100 10 -118 -82 -126
-289 -25 -193 95 -456 275 -614 422 -464 430 -730 894 -863 1504 -34 155 -46
296 -46 535 0 246 9 339 50 540 34 169 96 365 169 534 21 51 38 31 29 -35z
m9556 -2998 c0 -1823 -3 -2290 -12 -2294 -7 -2 -60 9 -118 25 -248 69 -271 75
-381 93 -119 19 -165 32 -213 62 -127 79 -196 198 -196 340 0 87 19 142 95
268 93 154 112 244 79 363 -45 163 -125 259 -280 337 -41 21 -84 56 -144 120
-47 49 -120 124 -162 167 l-78 77 0 1359 c0 747 3 1362 7 1365 3 4 321 7 705
7 l698 0 0 -2289z m1948 18 c2 -2148 1 -2267 -15 -2281 -27 -24 -117 -45 -238
-57 -122 -12 -1440 -35 -1455 -26 -6 4 -10 856 -10 2321 l0 2314 858 -2 857
-3 3 -2266z m4132 745 l0 -1527 -62 -66 c-50 -53 -80 -100 -142 -221 -119
-235 -168 -289 -288 -321 -110 -30 -246 61 -322 216 -35 72 -41 89 -96 258
-37 117 -84 200 -141 251 -47 43 -132 86 -169 86 -14 0 -41 4 -60 10 -25 7
-57 6 -120 -6 -178 -33 -282 -93 -537 -311 -250 -214 -351 -279 -480 -309 -56
-13 -78 -13 -130 -4 -34 7 -73 21 -85 32 -62 55 -152 76 -238 54 -140 -36
-228 -114 -355 -316 -191 -305 -292 -380 -510 -380 -72 0 -96 -4 -123 -20 -18
-11 -37 -20 -42 -20 -7 0 -10 727 -10 2060 l0 2060 1955 0 1955 0 0 -1526z
m2320 -401 l0 -1928 -51 -52 c-61 -63 -100 -77 -189 -71 -89 7 -140 35 -271
153 -128 116 -201 155 -290 155 -111 0 -161 -42 -257 -219 -69 -127 -121 -183
-182 -199 -161 -41 -310 155 -266 350 8 34 21 92 30 128 19 83 20 131 1 222
-35 171 -142 312 -290 384 -77 37 -85 39 -200 42 -75 3 -123 8 -127 16 -9 13
-11 2907 -2 2930 6 14 107 16 1050 16 l1044 0 0 -1927z m1419 -819 l31 -26 0
-588 c0 -458 -3 -590 -12 -597 -27 -20 -137 -43 -211 -43 -83 0 -120 10 -155
43 -22 20 -23 27 -17 94 7 68 5 75 -28 145 -20 40 -55 102 -79 138 -24 36 -61
93 -81 126 l-37 62 0 307 0 307 29 29 29 29 250 0 250 0 31 -26z m7929 -156
l-3 -172 -55 -13 c-30 -7 -77 -18 -105 -24 -170 -39 -398 -136 -510 -217 -160
-116 -273 -267 -320 -428 -9 -30 -24 -146 -35 -257 -20 -215 -29 -256 -72
-328 -80 -136 -237 -162 -528 -86 -74 19 -153 42 -175 50 -114 41 -157 62
-167 80 -13 26 -5 248 12 297 20 60 51 113 114 190 121 151 231 285 236 290 3
3 40 48 82 100 42 52 100 124 129 160 29 36 117 144 195 241 79 97 158 189
175 203 34 29 98 64 139 77 14 4 220 8 458 8 l432 1 -2 -172z m-4857 73 l29
-29 0 -660 0 -660 -40 -51 c-98 -124 -231 -181 -422 -181 -222 0 -392 74 -602
264 l-76 68 0 607 c0 658 -2 639 54 661 11 5 247 9 524 9 l504 1 29 -29z"/>
<path d="M12109 20881 l-29 -29 0 -639 c0 -701 -3 -665 60 -698 43 -22 747
-22 790 0 63 33 60 -3 60 701 l0 642 -31 26 -31 26 -395 0 -395 0 -29 -29z"/>
<path d="M12109 19081 l-29 -29 0 -795 0 -795 29 -30 c18 -17 45 -32 68 -35
49 -9 666 -9 716 -1 21 4 51 19 67 34 l30 28 0 797 0 797 -29 29 -29 29 -397
0 -397 0 -29 -29z"/>
<path d="M14220 20767 c-14 -7 -33 -28 -42 -47 -17 -32 -18 -88 -18 -725 0
-772 -3 -741 70 -777 33 -17 113 -18 1243 -18 1330 0 1257 -3 1297 62 19 32
20 49 20 733 0 682 -1 701 -20 733 -11 18 -32 37 -46 42 -41 16 -2472 13
-2504 -3z"/>
<path d="M1300 13077 l0 -93 58 -18 c88 -28 187 -84 230 -130 22 -24 50 -69
63 -102 l24 -59 0 -3505 0 -3505 -24 -59 c-13 -33 -41 -78 -63 -102 -43 -46
-142 -102 -230 -130 l-58 -18 0 -93 0 -93 1245 0 1245 0 0 94 0 93 -67 22
c-139 46 -237 126 -278 227 -20 48 -20 75 -23 1431 l-2 1382 1652 4 c1703 4
1757 6 2132 48 915 102 1469 399 1858 994 193 293 303 598 360 990 18 122 17
561 0 680 -70 466 -238 869 -491 1178 -85 105 -263 272 -368 346 -376 265
-782 404 -1363 465 -364 39 -387 39 -3172 43 l-2728 4 0 -94z m5360 -1250
c415 -56 613 -140 763 -322 326 -396 326 -1024 0 -1420 -150 -183 -343 -264
-768 -322 -106 -15 -299 -17 -1677 -20 l-1558 -4 0 1056 0 1056 1558 -4 c1390
-3 1570 -5 1682 -20z"/>
<path d="M10480 13077 l0 -93 58 -18 c88 -28 187 -84 230 -130 22 -24 50 -69
63 -102 l24 -59 0 -3505 0 -3505 -24 -59 c-13 -33 -41 -78 -63 -102 -43 -46
-142 -102 -230 -130 l-58 -18 0 -93 0 -94 2463 4 c2547 4 2544 4 2967 47 1029
104 1713 401 2308 999 495 499 817 1133 966 1906 97 507 120 1134 60 1680
-127 1165 -637 2114 -1440 2682 -275 195 -604 358 -902 449 -432 131 -930 201
-1602 224 -159 5 -1288 10 -2552 10 l-2268 0 0 -93z m4750 -1237 c756 -53
1225 -237 1605 -631 365 -378 572 -878 647 -1564 21 -188 17 -821 -5 -1005
-103 -836 -410 -1409 -952 -1772 -232 -155 -511 -259 -860 -317 -328 -55 -309
-55 -1737 -58 l-1328 -4 0 2681 0 2680 1243 0 c731 0 1302 -4 1387 -10z"/>
<path d="M20540 13077 l0 -93 58 -18 c88 -28 187 -84 230 -130 22 -24 50 -69
63 -102 l24 -59 0 -3505 0 -3505 -24 -59 c-13 -33 -41 -78 -63 -102 -43 -46
-142 -102 -230 -130 l-58 -18 0 -93 0 -93 1175 0 1175 0 0 93 0 94 -42 12
c-74 22 -182 76 -221 111 -21 18 -49 52 -63 75 -56 97 -54 -34 -54 2660 0
1492 4 2475 9 2470 5 -6 667 -1243 1471 -2750 804 -1507 1465 -2743 1469
-2747 3 -4 700 1225 1549 2732 849 1506 1550 2746 1557 2757 12 15 14 -334 15
-2452 0 -1664 -4 -2491 -11 -2534 -26 -162 -118 -256 -311 -317 l-58 -18 0
-93 0 -93 1245 0 1245 0 0 94 0 94 -52 17 c-186 60 -277 144 -307 285 -9 42
-11 904 -9 3545 l3 3490 27 57 c45 97 137 165 286 213 l52 17 0 94 0 94 -1505
0 -1505 0 0 -92 0 -93 69 -17 c125 -30 190 -91 213 -201 15 -70 -4 -161 -60
-287 -35 -79 -2258 -4178 -2285 -4213 -10 -13 -199 338 -1121 2088 -609 1158
-1117 2133 -1128 2167 -41 128 -22 265 48 346 33 38 158 112 190 112 11 0 14
21 14 95 l0 95 -1540 0 -1540 0 0 -93z"/>
</g>
</svg>
